<svg width="18" height="18" viewBox="0 0 18 18" fill="none" xmlns="http://www.w3.org/2000/svg">
<path d="M16.6154 3H13.1538V2.25C13.1538 1.65326 12.935 1.08097 12.5455 0.65901C12.156 0.237053 11.6278 0 11.0769 0H6.92308C6.37224 0 5.84397 0.237053 5.45447 0.65901C5.06497 1.08097 4.84615 1.65326 4.84615 2.25V3H1.38462C1.01739 3 0.66521 3.15804 0.405544 3.43934C0.145879 3.72064 0 4.10218 0 4.5V16.5C0 16.8978 0.145879 17.2794 0.405544 17.5607C0.66521 17.842 1.01739 18 1.38462 18H16.6154C16.9826 18 17.3348 17.842 17.5945 17.5607C17.8541 17.2794 18 16.8978 18 16.5V4.5C18 4.10218 17.8541 3.72064 17.5945 3.43934C17.3348 3.15804 16.9826 3 16.6154 3ZM6.23077 2.25C6.23077 2.05109 6.30371 1.86032 6.43354 1.71967C6.56337 1.57902 6.73947 1.5 6.92308 1.5H11.0769C11.2605 1.5 11.4366 1.57902 11.5665 1.71967C11.6963 1.86032 11.7692 2.05109 11.7692 2.25V3H6.23077V2.25ZM16.6154 4.5V8.40094C14.2787 9.77885 11.6605 10.5005 9 10.5C6.33964 10.5005 3.72152 9.7792 1.38462 8.40188V4.5H16.6154ZM16.6154 16.5H1.38462V10.0912C3.7557 11.3477 6.36046 12.0006 9 12C11.6396 12.0001 14.2443 11.3469 16.6154 10.0903V16.5ZM6.92308 8.25C6.92308 8.05109 6.99602 7.86032 7.12585 7.71967C7.25568 7.57902 7.43177 7.5 7.61538 7.5H10.3846C10.5682 7.5 10.7443 7.57902 10.8742 7.71967C11.004 7.86032 11.0769 8.05109 11.0769 8.25C11.0769 8.44891 11.004 8.63968 10.8742 8.78033C10.7443 8.92098 10.5682 9 10.3846 9H7.61538C7.43177 9 7.25568 8.92098 7.12585 8.78033C6.99602 8.63968 6.92308 8.44891 6.92308 8.25Z" fill="#69CCF7"/>
</svg>
